# xmcd
#
# Track frame offsets:
#	150
#	13365
#	29788
#	46123
#	61694
#	78609
#	96107
#	114509
#	127125
#	142353
#	161195
#	178619
#
# Disc length: 2600 seconds
# Revision: 1
# Processed by: cddbd v1.5.2PL0 Copyright (c) Steve Scherf et al.
# Submitted via: dBpowerAMP V12.0
#
DISCID=b00a260c
DTITLE=Various Artist - Home For The Holidays
DYEAR=2014
DGENRE=Country*
TTITLE0=Darius Rucker - Let It Snow, Let It Snow, Let It Snow
TTITLE1=Darius Rucker - Have Yourself A Merry Little Christmas
TTITLE2=Darius Rucker - What God Wants For Christmas
TTITLE3=Darius Rucker - You're A Mean One, Mr. Grinch
TTITLE4=Darius Rucker feat. Sheryl Crow - Baby, It's Cold Outside
TTITLE5=Darius Rucker - I'll Be Home For Christmas
TTITLE6=Darius Rucker - O Come, All Ye Faithful
TTITLE7=Darius Rucker - Winter Wonderland
TTITLE8=Darius Rucker - Candy Cane Christmas
TTITLE9=Darius Rucker - Please Come Home For Christmas
TTITLE10=Darius Rucker - Hark! The Herald Angels Sing
TTITLE11=Darius Rucker - White Christmas
EXTD=
EXTT0=
EXTT1=
EXTT2=
EXTT3=
EXTT4=
EXTT5=
EXTT6=
EXTT7=
EXTT8=
EXTT9=
EXTT10=
EXTT11=
PLAYORDER=
